<svg width="170" height="67" viewBox="0 0 170 67" fill="none" xmlns="http://www.w3.org/2000/svg">
<g filter="url(#filter0_d_6065_864)">
<path d="M14.3513 58.8567C10.3045 58.2001 7.41399 56.8046 5.92743 54.8346C4.02793 52.3721 3.53241 48.9245 4.44087 45.2307C4.60604 44.7382 5.18415 42.9324 5.76226 41.2907C6.42295 39.649 7.00106 37.9253 7.16623 37.4327C8.15727 33.9852 8.32245 28.4035 7.74434 23.6426C7.66175 22.9038 7.41399 21.3442 7.24882 20.1951C6.91847 17.4863 6.67071 15.27 6.67071 13.4642C6.67071 12.3971 6.67071 11.9046 6.42295 11.4121C5.67967 9.1137 7.00106 6.24076 9.64384 4.59907C12.0389 3.03947 16.003 2.54697 19.0587 3.44989C20.8756 3.9424 22.8577 5.0095 23.601 5.99451C23.8488 6.24076 23.8488 6.24076 24.592 5.502C25.5005 4.68116 26.409 4.18865 27.9781 3.77823C31.7771 2.71114 35.1632 2.95739 38.3014 4.51699C39.7054 5.17366 40.9442 6.07659 42.183 7.22577C43.7522 8.70328 44.578 10.0166 45.0736 11.8225C45.8168 14.3671 45.4865 16.9938 43.9999 19.9488L43.2567 21.3442L43.9999 21.6726C45.4865 22.3293 47.7989 24.053 49.2855 25.6947C51.4328 27.9931 52.7541 28.8685 53.4974 31.5773C53.7452 32.6444 54.4924 33.5317 53.4974 37.4327C52.6433 40.7814 50.5597 44.1988 50.5597 46.1532C50.5597 49.0848 51.2676 52.5542 49.2855 54.4422C46.7253 56.9868 42.6943 57.9615 37.6408 57.9263C31.8793 57.8862 29.9602 55.8196 27.4826 55.5734L25.996 55.4092L25.2527 56.1479C23.7662 57.4613 22.2796 58.2821 20.3801 58.6926C18.8936 59.0209 15.8378 59.103 14.3513 58.8567ZM32.4378 43.0145C32.603 42.8503 33.0159 42.522 33.3462 42.1936C34.0895 41.3728 34.4199 40.4699 34.4199 39.2386C34.4199 38.3357 34.3373 38.2536 34.0895 37.9253C33.594 37.4327 32.8507 37.1044 32.19 37.1044C31.6945 37.1044 31.6119 37.1865 31.3642 37.4327C31.199 37.679 31.199 38.0073 31.199 40.1415C31.199 42.1115 31.2816 42.6041 31.4467 42.8503C31.6119 43.1786 31.9423 43.2607 32.4378 43.0145ZM29.5472 20.113C29.7124 20.4413 30.2079 20.3592 30.7861 19.7846C31.3642 19.2101 31.9423 17.9788 32.0249 17.24C32.19 16.0909 31.5293 15.1879 30.6209 14.8596C30.1254 14.6954 29.6298 14.8596 29.4647 15.1879C29.2995 15.5163 29.3821 19.7026 29.5472 20.113Z" fill="#FFCF0A"/>
<path d="M122.457 58.8568C118.398 58.2001 115.498 56.8047 114.007 54.8347C112.102 52.3722 111.439 47.2125 112.516 45.2308C113.593 43.2492 114.397 43.3037 116.37 42.1116C119.329 40.3721 119.029 37.9254 119.194 37.4328C120.189 33.9853 120.354 28.4036 119.774 23.6427C119.691 22.9039 119.443 21.3443 119.277 20.1952C118.946 17.4864 118.697 15.2701 118.697 13.4643C118.697 12.3972 118.697 11.9047 118.449 11.4122C117.703 9.1138 119.029 6.24086 121.68 4.59917C124.082 3.03957 128.058 2.54707 131.124 3.44999C132.946 3.9425 134.934 5.00959 135.68 5.9946C135.928 6.24086 135.928 6.24086 136.674 5.5021C137.585 4.68126 138.497 4.18875 140.071 3.77833C143.881 2.71123 147.278 2.95749 150.426 4.51709C151.834 5.17376 153.077 6.07668 154.319 7.22586C155.893 8.70338 156.722 10.0167 157.219 11.8226C157.964 14.3672 157.633 16.9939 156.142 19.9489L155.396 21.3443L156.142 21.6727C157.633 22.3294 159.953 24.0531 161.444 25.6948C163.598 27.9932 164.923 30.4557 165.669 33.1645C165.917 34.2316 166 34.5599 166 36.7762C166 39.4029 165.917 40.2237 165.42 42.1116C164.757 44.6563 163.432 46.8725 161.444 48.7605C158.876 51.3051 154.899 53.2751 149.763 54.5884C146.449 55.4093 142.059 55.8197 139.573 55.5735L138.082 55.4093L137.337 56.148C135.846 57.4614 134.354 58.2822 132.449 58.6927C130.958 59.021 123.948 59.1031 122.457 58.8568ZM144.544 43.0146C144.71 42.8504 145.124 42.5221 145.455 42.1937C146.201 41.3729 146.532 40.47 146.532 39.2387C146.532 38.3358 146.449 38.2537 146.201 37.9254C145.704 37.4328 144.958 37.1045 144.295 37.1045C143.798 37.1045 143.716 37.1866 143.467 37.4328C143.301 37.6791 143.301 38.0074 143.301 40.1416C143.301 42.1116 143.384 42.6041 143.55 42.8504C143.716 43.1787 144.047 43.2608 144.544 43.0146ZM141.645 20.1131C141.81 20.4414 142.307 20.3593 142.887 19.7847C143.467 19.2102 144.047 17.9789 144.13 17.2401C144.295 16.091 143.633 15.188 142.721 14.8597C142.224 14.6955 141.727 14.8597 141.562 15.188C141.396 15.5164 141.479 19.7027 141.645 20.1131Z" fill="#FFCF0A"/>
<path d="M61.263 58.8654C59.4326 58.6188 58.1846 58.0434 56.8534 57.1393C54.3573 55.3311 53.1093 52.1256 53.1093 47.7694C53.1093 45.468 53.2757 44.4817 55.0229 39.5502C57.3526 32.8104 57.4358 32.3172 57.3526 29.1939C57.2694 26.9747 57.4358 27.6323 55.4389 20.235C53.1093 11.8514 52.7765 12.0001 53.1093 10.1097C53.3589 8.13704 54.3573 6.32881 55.8549 4.68497C57.6854 2.79454 60.0982 1.56165 63.8423 0.65754C65.9223 0.164387 67.0039 0 69.2504 0C71.164 0 71.4968 0.0821964 72.5784 0.32877C76.4889 1.39727 79.341 4.24954 80.3161 8.63019C80.5725 9.7817 80.2644 8.42765 80.6489 10.1253C80.6489 12.0979 80.5657 12.7555 80.3993 13.824C79.9833 15.8788 80.3518 18.8063 79.2702 21.7652C77.6893 26.0392 77.0713 27.777 76.4889 30.5715C75.6569 34.2702 74.3256 37.7419 74.5752 40.1255C74.8249 42.5913 75.6569 44.6461 76.4889 45.5502C76.9881 46.0434 78.2361 46.1255 80.3161 45.5502C82.5626 44.9748 83.7908 44.3524 86.2036 44.2702C88.5333 44.188 93.6799 45.1392 95.6767 45.5502C98.5055 46.2899 100.419 47.605 101.501 49.742C102 50.7283 102 50.8105 102 51.7968C102 52.9475 101.834 53.5229 101.168 54.5914C100.003 56.4818 99.3376 57.0571 97.2575 57.7968C95.9263 58.2078 95.7599 58.2078 93.3471 58.3722C89.9358 58.6188 82.0634 58.4544 78.1529 57.7968C76.8217 57.5503 76.8217 57.5503 73.1608 57.879C71.164 58.0434 68.5016 58.3722 67.2535 58.5366C64.3415 59.0297 62.5943 59.1119 61.263 58.8654Z" fill="#FFCF0A"/>
<path d="M97.5322 42.8853C94.4649 42.5608 90.8718 41.5874 88.418 40.4517C87.1911 39.8839 85.3507 38.6671 84.3867 37.8559C83.6856 37.2069 83.4227 36.7202 82.8969 35.8279C82.1081 34.2867 81.9329 33.4755 82.0205 31.3664C82.1081 29.095 82.4587 27.5538 83.6856 24.2279C85.3507 19.6852 85.526 18.4684 84.9125 15.3859C84.562 13.3579 84.562 12.7901 84.8249 11.6544C85.0878 10.3565 85.7889 9.22088 86.8405 8.16633C88.8562 6.21947 91.5729 4.92157 95.2536 4.35373C97.1816 4.02926 99.7231 3.94814 101.301 4.02926C105.77 4.43485 108.311 5.16493 110.327 6.70619C112.343 8.16633 112.956 9.54535 112.956 12.4656C112.956 14.737 113.131 15.467 114.446 18.5496C116.286 22.6866 116.812 24.7957 116.987 27.716C117.163 31.9342 115.498 35.909 112.343 38.7482C109.363 41.5874 105.682 42.8853 100.512 42.9664C99.3725 43.0475 98.058 42.9664 97.5322 42.8853ZM98.8467 29.0139C98.8467 29.0139 99.1972 28.9328 99.6354 28.8517C101.125 28.6083 102.615 27.6349 103.053 26.5804C103.404 25.7692 103.229 24.4713 102.615 23.1734C101.826 21.4699 101.563 20.5775 101.388 19.4419C101.213 17.9006 101.125 17.5761 100.599 17.1705C99.8107 16.5216 98.4962 16.4405 97.5322 16.8461C96.5682 17.3328 96.4805 17.5761 96.3929 19.1985C96.3052 20.8209 96.0423 21.7943 95.5165 22.93C95.166 23.4978 95.0783 23.8223 95.0783 24.3901C95.0783 26.6615 96.3929 28.4461 98.4962 28.8517C98.6714 28.9328 98.8467 29.0139 98.8467 29.0139Z" fill="#FFCF0A"/>
</g>
<defs>
<filter id="filter0_d_6065_864" x="0" y="0" width="170" height="67" filterUnits="userSpaceOnUse" color-interpolation-filters="sRGB">
<feFlood flood-opacity="0" result="BackgroundImageFix"/>
<feColorMatrix in="SourceAlpha" type="matrix" values="0 0 0 0 0 0 0 0 0 0 0 0 0 0 0 0 0 0 127 0" result="hardAlpha"/>
<feOffset dy="4"/>
<feGaussianBlur stdDeviation="2"/>
<feComposite in2="hardAlpha" operator="out"/>
<feColorMatrix type="matrix" values="0 0 0 0 0.286275 0 0 0 0 0.0470588 0 0 0 0 0.0352941 0 0 0 0.41 0"/>
<feBlend mode="normal" in2="BackgroundImageFix" result="effect1_dropShadow_6065_864"/>
<feBlend mode="normal" in="SourceGraphic" in2="effect1_dropShadow_6065_864" result="shape"/>
</filter>
</defs>
</svg>
