<svg width="181" height="66" viewBox="0 0 181 66" fill="none" xmlns="http://www.w3.org/2000/svg">
<path d="M12.0537 65.6198C7.57149 64.8925 4.36994 63.3469 2.72343 61.1649C0.619562 58.4374 0.0707261 54.619 1.07693 50.5277C1.25987 49.9822 1.90018 47.9821 2.54049 46.1638C3.27227 44.3454 3.91258 42.4362 4.09553 41.8907C5.1932 38.0722 5.37614 31.89 4.73583 26.6168C4.64436 25.7986 4.36994 24.0712 4.187 22.7983C3.82111 19.7981 3.54669 17.3434 3.54669 15.3432C3.54669 14.1613 3.54669 13.6158 3.27227 13.0703C2.44902 10.5247 3.91258 7.34262 6.83971 5.5243C9.49242 3.79689 13.8831 3.2514 17.2676 4.25147C19.28 4.79697 21.4753 5.97888 22.2986 7.06987C22.573 7.34262 22.573 7.34262 23.3963 6.52438C24.4025 5.61522 25.4087 5.06972 27.1466 4.61514C31.3544 3.43323 35.1048 3.70598 38.5807 5.43338C40.1358 6.16071 41.5079 7.16079 42.88 8.43361C44.6179 10.0701 45.5327 11.5248 46.0815 13.5249C46.9047 16.3433 46.5389 19.2526 44.8924 22.5256L44.0691 24.0712L44.8924 24.4348C46.5389 25.1622 49.1001 27.0714 50.7466 28.8897C53.1249 31.4354 54.5885 32.405 55.4117 35.4052C55.6861 36.5872 56.5137 37.5699 55.4117 41.8907C54.4657 45.5996 52.1579 49.3848 52.1579 51.5495C52.1579 54.7965 52.942 58.6392 50.7466 60.7302C47.911 63.5486 43.4462 64.6283 37.849 64.5893C31.4676 64.5449 29.342 62.2559 26.5978 61.9832L24.9513 61.8013L24.128 62.6196C22.4815 64.0742 20.835 64.9834 18.7312 65.438C17.0846 65.8016 13.7002 65.8925 12.0537 65.6198ZM32.0862 48.073C32.2691 47.8912 32.7265 47.5275 33.0924 47.1638C33.9156 46.2547 34.2815 45.2546 34.2815 43.8909C34.2815 42.8908 34.19 42.7999 33.9156 42.4362C33.3668 41.8907 32.5435 41.5271 31.8118 41.5271C31.2629 41.5271 31.1714 41.618 30.897 41.8907C30.7141 42.1635 30.7141 42.5271 30.7141 44.8909C30.7141 47.0729 30.8056 47.6184 30.9885 47.8912C31.1714 48.2548 31.5373 48.3458 32.0862 48.073ZM28.8846 22.7074C29.0676 23.0711 29.6164 22.9802 30.2567 22.3438C30.897 21.7074 31.5373 20.3436 31.6288 19.5254C31.8118 18.2525 31.08 17.2525 30.0738 16.8888C29.5249 16.707 28.9761 16.8888 28.7932 17.2525C28.6102 17.6161 28.7017 22.2529 28.8846 22.7074Z" fill="white"/>
<path d="M131.791 65.6199C127.295 64.8926 124.083 63.347 122.432 61.165C120.322 58.4375 119.588 52.7227 120.78 50.5278C121.973 48.333 122.864 48.3934 125.049 47.073C128.326 45.1464 127.994 42.4363 128.177 41.8908C129.279 38.0723 129.462 31.8901 128.82 26.6169C128.728 25.7987 128.453 24.0713 128.269 22.7985C127.902 19.7982 127.627 17.3435 127.627 15.3433C127.627 14.1614 127.627 13.6159 127.352 13.0704C126.526 10.5248 127.994 7.34273 130.93 5.52441C133.591 3.797 137.995 3.25151 141.39 4.25158C143.409 4.79708 145.611 5.97899 146.437 7.06998C146.712 7.34273 146.712 7.34273 147.538 6.52449C148.547 5.61533 149.556 5.06983 151.3 4.61525C155.521 3.43334 159.282 3.70609 162.769 5.43349C164.329 6.16082 165.705 7.16089 167.082 8.43372C168.825 10.0702 169.743 11.5249 170.293 13.525C171.119 16.3434 170.752 19.2527 169.1 22.5257L168.274 24.0713L169.1 24.4349C170.752 25.1623 173.321 27.0715 174.973 28.8898C177.358 31.4355 178.826 34.163 179.652 37.1632C179.927 38.3451 180.019 38.7088 180.019 41.1635C180.019 44.0728 179.927 44.982 179.377 47.073C178.643 49.8914 177.175 52.3462 174.973 54.4372C172.128 57.2556 167.724 59.4376 162.035 60.8923C158.365 61.8014 153.502 62.256 150.749 61.9833L149.098 61.8014L148.272 62.6197C146.62 64.0743 144.969 64.9835 142.858 65.4381C141.207 65.8017 133.442 65.8927 131.791 65.6199ZM156.255 48.0731C156.438 47.8913 156.897 47.5276 157.264 47.164C158.09 46.2548 158.457 45.2547 158.457 43.891C158.457 42.8909 158.365 42.8 158.09 42.4363C157.539 41.8908 156.713 41.5272 155.979 41.5272C155.429 41.5272 155.337 41.6181 155.062 41.8908C154.878 42.1636 154.878 42.5272 154.878 44.8911C154.878 47.073 154.97 47.6185 155.153 47.8913C155.337 48.2549 155.704 48.3459 156.255 48.0731ZM153.043 22.7075C153.227 23.0712 153.777 22.9803 154.419 22.3439C155.062 21.7075 155.704 20.3437 155.796 19.5255C155.979 18.2527 155.245 17.2526 154.236 16.8889C153.685 16.7071 153.135 16.8889 152.951 17.2526C152.768 17.6162 152.86 22.253 153.043 22.7075Z" fill="white"/>
<path d="M64.0129 65.6294C61.9856 65.3563 60.6033 64.719 59.1288 63.7176C56.3642 61.7148 54.9819 58.1645 54.9819 53.3396C54.9819 50.7906 55.1662 49.6981 57.1014 44.236C59.6817 36.771 59.7739 36.2248 59.6817 32.7655C59.5896 30.3075 59.7739 31.0358 57.5622 22.8426C54.9819 13.5569 54.6133 13.7216 54.9819 11.6278C55.2584 9.44297 56.3642 7.44018 58.023 5.61946C60.0503 3.52564 62.7228 2.1601 66.8697 1.15871C69.1735 0.612495 70.3715 0.43042 72.8597 0.43042C74.9792 0.43042 75.3478 0.52146 76.5458 0.794564C80.877 1.97803 84.036 5.13719 85.1161 9.98918C85.4 11.2646 85.0587 9.76484 85.4847 11.6452C85.4847 13.83 85.3925 14.5583 85.2082 15.7418C84.7474 18.0177 85.1555 21.2602 83.9575 24.5374C82.2066 29.2713 81.5221 31.1961 80.877 34.2913C79.9555 38.3879 78.481 42.2332 78.7575 44.8732C79.0339 47.6043 79.9555 49.8802 80.877 50.8816C81.4299 51.4278 82.8122 51.5188 85.1161 50.8816C87.6042 50.2443 88.9645 49.555 91.637 49.4639C94.2173 49.3729 99.9176 50.4264 102.129 50.8816C105.263 51.7009 107.382 53.1575 108.58 55.5244C109.133 56.6168 109.133 56.7079 109.133 57.8003C109.133 59.0748 108.949 59.7121 108.211 60.8955C106.921 62.9893 106.184 63.6266 103.88 64.4459C102.406 64.9011 102.221 64.9011 99.549 65.0832C95.7708 65.3563 87.0513 65.1742 82.7201 64.4459C81.2456 64.1728 81.2456 64.1728 77.1909 64.5369C74.9792 64.719 72.0303 65.0832 70.648 65.2652C67.4226 65.8115 65.4874 65.9025 64.0129 65.6294Z" fill="white"/>
<path d="M104.184 47.9299C100.787 47.5705 96.8073 46.4923 94.0895 45.2344C92.7305 44.6055 90.6922 43.2578 89.6244 42.3593C88.8479 41.6406 88.5567 41.1015 87.9743 40.1132C87.1007 38.4061 86.9066 37.5076 87.0037 35.1716C87.1007 32.6559 87.489 30.9488 88.8479 27.265C90.6922 22.2336 90.8863 20.8859 90.2068 17.4717C89.8186 15.2255 89.8186 14.5966 90.1098 13.3387C90.401 11.9012 91.1775 10.6433 92.3423 9.47532C94.5748 7.31899 97.5838 5.88144 101.661 5.25251C103.796 4.89312 106.611 4.80328 108.358 4.89312C113.308 5.34236 116.123 6.15098 118.356 7.85808C120.588 9.47532 121.268 11.0027 121.268 14.2372C121.268 16.7529 121.462 17.5616 122.918 20.9757C124.956 25.5579 125.539 27.894 125.733 31.1285C125.927 35.8005 124.083 40.203 120.588 43.3477C117.288 46.4923 113.211 47.9299 107.485 48.0197C106.223 48.1096 104.767 48.0197 104.184 47.9299ZM105.64 32.566C105.64 32.566 106.029 32.4762 106.514 32.3863C108.164 32.1168 109.814 31.0386 110.299 29.8706C110.688 28.9721 110.494 27.5346 109.814 26.097C108.941 24.2102 108.649 23.2219 108.455 21.9641C108.261 20.257 108.164 19.8976 107.582 19.4483C106.708 18.7296 105.252 18.6397 104.184 19.089C103.117 19.628 103.02 19.8976 102.922 21.6945C102.825 23.4915 102.534 24.5696 101.952 25.8275C101.564 26.4564 101.466 26.8158 101.466 27.4447C101.466 29.9604 102.922 31.9371 105.252 32.3863C105.446 32.4762 105.64 32.566 105.64 32.566Z" fill="white"/>
</svg>
