<svg width="451" height="66" viewBox="0 0 451 66" fill="none" xmlns="http://www.w3.org/2000/svg">
<path d="M11.465 65.1894C6.98287 64.4621 3.78132 62.9165 2.13481 60.7345C0.0309394 58.007 -0.517897 54.1885 0.488303 50.0973C0.671248 49.5518 1.31156 47.5517 1.95187 45.7333C2.68365 43.915 3.32396 42.0058 3.5069 41.4603C4.60457 37.6418 4.78752 31.4595 4.14721 26.1864C4.05574 25.3682 3.78132 23.6408 3.59837 22.3679C3.23248 19.3677 2.95807 16.913 2.95807 14.9128C2.95807 13.7309 2.95807 13.1854 2.68365 12.6399C1.86039 10.0943 3.32396 6.9122 6.25108 5.09388C8.90379 3.36647 13.2945 2.82098 16.679 3.82105C18.6914 4.36655 20.8867 5.54846 21.71 6.63945C21.9844 6.9122 21.9844 6.9122 22.8076 6.09396C23.8138 5.1848 24.82 4.6393 26.558 4.18472C30.7658 3.00281 34.5162 3.27556 37.9921 5.00296C39.5472 5.73029 40.9192 6.73037 42.2913 8.00319C44.0293 9.63968 44.944 11.0943 45.4929 13.0945C46.3161 15.9129 45.9502 18.8222 44.3037 22.0952L43.4805 23.6408L44.3037 24.0044C45.9502 24.7317 48.5115 26.641 50.158 28.4593C52.5363 31.005 53.9998 31.9746 54.8231 34.9748C55.0975 36.1567 55.9251 37.1395 54.8231 41.4603C53.8771 45.1692 51.5693 48.9544 51.5693 51.119C51.5693 54.366 52.3533 58.2088 50.158 60.2998C47.3223 63.1182 42.8576 64.1978 37.2603 64.1589C30.879 64.1145 28.7534 61.8255 26.0092 61.5527L24.3627 61.3709L23.5394 62.1892C21.8929 63.6438 20.2464 64.553 18.1425 65.0075C16.496 65.3712 13.1115 65.4621 11.465 65.1894ZM31.4976 47.6426C31.6805 47.4608 32.1379 47.0971 32.5037 46.7334C33.327 45.8243 33.6929 44.8242 33.6929 43.4604C33.6929 42.4604 33.6014 42.3695 33.327 42.0058C32.7782 41.4603 31.9549 41.0966 31.2231 41.0966C30.6743 41.0966 30.5828 41.1875 30.3084 41.4603C30.1255 41.733 30.1255 42.0967 30.1255 44.4605C30.1255 46.6425 30.2169 47.188 30.3999 47.4608C30.5828 47.8244 30.9487 47.9153 31.4976 47.6426ZM28.296 22.277C28.479 22.6407 29.0278 22.5498 29.6681 21.9133C30.3084 21.2769 30.9487 19.9132 31.0402 19.095C31.2231 17.8221 30.4914 16.822 29.4852 16.4584C28.9363 16.2766 28.3875 16.4584 28.2045 16.822C28.0216 17.1857 28.1131 21.8224 28.296 22.277Z" fill="#348EFF"/>
<path d="M131.202 65.1895C126.706 64.4622 123.495 62.9166 121.843 60.7346C119.733 58.0071 118.999 52.2923 120.191 50.0974C121.384 47.9026 122.276 47.9629 124.46 46.6426C127.737 44.7159 127.405 42.0059 127.589 41.4604C128.69 37.6419 128.873 31.4596 128.231 26.1865C128.139 25.3683 127.864 23.6409 127.68 22.368C127.313 19.3678 127.038 16.9131 127.038 14.9129C127.038 13.731 127.038 13.1855 126.763 12.64C125.937 10.0944 127.405 6.91231 130.341 5.09399C133.002 3.36658 137.406 2.82109 140.801 3.82116C142.82 4.36666 145.022 5.54857 145.848 6.63956C146.123 6.91231 146.123 6.91231 146.949 6.09407C147.958 5.18491 148.968 4.63941 150.711 4.18483C154.932 3.00292 158.694 3.27567 162.18 5.00307C163.74 5.7304 165.116 6.73047 166.493 8.0033C168.236 9.63979 169.154 11.0944 169.704 13.0946C170.53 15.913 170.163 18.8223 168.511 22.0953L167.686 23.6409L168.511 24.0045C170.163 24.7319 172.732 26.6411 174.384 28.4594C176.769 31.0051 178.237 33.7325 179.063 36.7328C179.338 37.9147 179.43 38.2783 179.43 40.7331C179.43 43.6424 179.338 44.5515 178.788 46.6426C178.054 49.461 176.586 51.9157 174.384 54.0068C171.539 56.8252 167.135 59.0072 161.446 60.4619C157.776 61.371 152.913 61.8256 150.16 61.5528L148.509 61.371L147.683 62.1893C146.031 63.6439 144.38 64.5531 142.269 65.0077C140.618 65.3713 132.854 65.4622 131.202 65.1895ZM155.666 47.6427C155.849 47.4609 156.308 47.0972 156.675 46.7335C157.501 45.8244 157.868 44.8243 157.868 43.4606C157.868 42.4605 157.776 42.3696 157.501 42.0059C156.95 41.4604 156.124 41.0967 155.39 41.0967C154.84 41.0967 154.748 41.1877 154.473 41.4604C154.289 41.7332 154.289 42.0968 154.289 44.4606C154.289 46.6426 154.381 47.1881 154.565 47.4609C154.748 47.8245 155.115 47.9154 155.666 47.6427ZM152.454 22.2771C152.638 22.6408 153.188 22.5499 153.831 21.9135C154.473 21.277 155.115 19.9133 155.207 19.0951C155.39 17.8222 154.656 16.8222 153.647 16.4585C153.097 16.2767 152.546 16.4585 152.363 16.8222C152.179 17.1858 152.271 21.8225 152.454 22.2771Z" fill="#348EFF"/>
<path d="M63.4243 65.199C61.3969 64.9259 60.0146 64.2886 58.5402 63.2872C55.7756 61.2844 54.3933 57.734 54.3933 52.9091C54.3933 50.3601 54.5776 49.2677 56.5128 43.8056C59.0931 36.3406 59.1853 35.7944 59.0931 32.335C59.0009 29.8771 59.1853 30.6054 56.9736 22.4121C54.3933 13.1265 54.0247 13.2912 54.3933 11.1974C54.6697 9.01255 55.7756 7.00976 57.4343 5.18904C59.4617 3.09522 62.1342 1.72968 66.2811 0.728288C68.5849 0.182075 69.7829 0 72.271 0C74.3906 0 74.7592 0.0910403 75.9572 0.364144C80.2884 1.54761 83.4474 4.70677 84.5274 9.55876C84.8113 10.8342 84.4701 9.33442 84.8961 11.2147C84.8961 13.3996 84.8039 14.1279 84.6196 15.3114C84.1588 17.5872 84.5669 20.8297 83.3689 24.107C81.618 28.8409 80.9335 30.7656 80.2884 33.8609C79.3668 37.9575 77.8924 41.8028 78.1689 44.4428C78.4453 47.1739 79.3668 49.4498 80.2884 50.4512C80.8413 50.9974 82.2236 51.0884 84.5274 50.4512C87.0156 49.8139 88.3759 49.1245 91.0484 49.0335C93.6287 48.9425 99.329 49.996 101.541 50.4512C104.674 51.2705 106.793 52.7271 107.991 55.094C108.544 56.1864 108.544 56.2775 108.544 57.3699C108.544 58.6444 108.36 59.2816 107.623 60.4651C106.333 62.5589 105.595 63.1962 103.292 64.0155C101.817 64.4707 101.633 64.4707 98.9604 64.6528C95.1821 64.9259 86.4627 64.7438 82.1314 64.0155C80.657 63.7424 80.657 63.7424 76.6022 64.1065C74.3906 64.2886 71.4417 64.6528 70.0594 64.8348C66.834 65.381 64.8988 65.4721 63.4243 65.199Z" fill="#348EFF"/>
<path d="M103.596 47.4994C100.198 47.14 96.2187 46.0619 93.5008 44.804C92.1419 44.1751 90.1035 42.8274 89.0358 41.9289C88.2593 41.2101 87.9681 40.6711 87.3857 39.6827C86.5121 37.9757 86.318 37.0772 86.415 34.7412C86.5121 32.2254 86.9004 30.5183 88.2593 26.8346C90.1035 21.8032 90.2977 20.4555 89.6182 17.0413C89.23 14.7951 89.23 14.1662 89.5212 12.9083C89.8123 11.4708 90.5889 10.2129 91.7537 9.0449C93.9862 6.88857 96.9952 5.45102 101.072 4.82209C103.207 4.4627 106.022 4.37286 107.769 4.4627C112.72 4.91194 115.535 5.72056 117.767 7.42766C120 9.0449 120.679 10.5723 120.679 13.8068C120.679 16.3225 120.873 17.1311 122.329 20.5453C124.368 25.1275 124.95 27.4635 125.144 30.698C125.338 35.3701 123.494 39.7726 120 42.9172C116.7 46.0619 112.623 47.4994 106.896 47.5893C105.634 47.6791 104.178 47.5893 103.596 47.4994ZM105.052 32.1356C105.052 32.1356 105.44 32.0457 105.925 31.9559C107.575 31.6864 109.225 30.6082 109.711 29.4402C110.099 28.5417 109.905 27.1042 109.225 25.6666C108.352 23.7798 108.061 22.7915 107.867 21.5336C107.672 19.8265 107.575 19.4672 106.993 19.0179C106.119 18.2991 104.663 18.2093 103.596 18.6585C102.528 19.1976 102.431 19.4672 102.334 21.2641C102.237 23.061 101.946 24.1392 101.363 25.3971C100.975 26.026 100.878 26.3854 100.878 27.0143C100.878 29.53 102.334 31.5067 104.663 31.9559C104.858 32.0457 105.052 32.1356 105.052 32.1356Z" fill="#348EFF"/>
<path d="M416.889 64.9885C414.521 64.6377 413.205 64.1992 411.715 63.4098C409.785 62.4451 408.469 61.1295 407.505 59.2878C406.365 57.1829 406.014 55.4288 406.101 52.3592C406.189 51.219 406.101 49.3773 406.101 48.1494C405.926 45.7814 406.014 43.6765 406.54 39.993C407.768 31.398 407.68 25.6973 406.189 16.7516C405.926 15.3483 405.926 13.2434 406.101 11.9279C406.365 10.1738 407.592 8.41971 409.171 7.36727C411.802 5.78861 414.784 4.82387 418.468 4.47305C422.59 4.03454 425.396 4.73617 427.326 6.75335L427.94 7.36727L428.729 7.01646C430.22 6.40253 432.763 6.13942 437.587 6.13942C441.271 6.13942 442.498 6.22713 444.34 6.84105C447.673 7.89349 449.602 10.8754 449.164 14.4713C448.989 15.8745 448.638 16.6638 447.848 17.804C446.796 19.295 445.393 20.3474 443.726 20.8736C442.762 21.1367 440.13 21.1367 437.149 20.8736C433.114 20.4351 432.413 20.7859 431.799 23.417C431.536 24.5572 431.272 27.276 431.448 27.6268C431.536 27.8022 431.623 27.8022 432.237 27.5391C433.377 27.1006 434.781 26.8375 437.149 26.6621C440.394 26.4866 442.148 26.7498 444.603 27.6268C446.007 28.153 447.059 28.7669 448.024 29.7317C449.602 31.2226 450.129 32.3628 450.216 34.5554C450.304 36.2217 450.129 37.1865 449.515 38.4143C448.813 40.0807 447.41 41.1331 445.305 41.7471C444.516 42.0102 444.165 42.0979 442.498 42.0979C440.92 42.0979 440.13 42.0102 437.85 41.5717C436.359 41.3085 434.605 41.1331 433.991 41.0454C432.939 41.0454 432.851 41.0454 432.588 41.3962C431.974 42.0979 431.448 44.5536 431.36 46.7462V47.8863H431.886C442.148 48.5002 444.253 48.851 446.796 50.1666C448.287 50.9559 449.69 52.71 450.129 54.2887C450.567 56.2181 449.953 58.1476 448.375 60.0771C446.884 61.8312 445.042 62.8836 442.674 63.4098C441.446 63.6729 441.095 63.6729 437.587 63.5852C434.605 63.5852 433.377 63.4975 431.536 63.2344C430.22 63.059 428.466 62.7959 427.589 62.7082L426.01 62.4451L425.396 62.8836C423.291 64.3746 419.345 65.3393 416.889 64.9885Z" fill="#35FFDB"/>
<path d="M369.744 64.9884C365.446 64.3745 361.938 62.8836 359.483 60.3402C358.342 59.2 357.728 58.323 357.29 57.0074C356.413 54.464 356.588 51.9206 358.167 46.483C360.184 39.2913 360.36 38.2389 360.272 34.9061C360.184 32.3627 360.009 31.398 359.044 27.3636C358.693 25.9604 358.342 24.5571 358.342 24.2063C358.167 23.1539 358.167 23.1539 357.027 23.3293C356.501 23.417 354.747 23.5047 352.992 23.5047C349.747 23.5047 348.256 23.3293 346.239 22.6276C343.608 21.7506 340.977 19.9965 339.662 18.3302C338.258 16.4884 337.732 14.7343 338.171 12.8048C338.784 10.5245 340.363 8.68278 342.994 7.36722C344.661 6.57789 345.888 6.22708 347.906 5.78856C350.361 5.35004 352.642 5.17463 355.36 5.26234C357.992 5.35004 359.395 5.52545 363.254 6.40248C366.499 7.10411 367.727 7.36723 370.358 7.54263C373.515 7.89345 375.006 7.71804 379.742 6.49019C381.058 6.13938 383.338 5.61315 384.917 5.26234C386.407 4.99923 388.162 4.56071 388.775 4.473C390.179 4.12219 393.599 4.03449 395.266 4.2099C397.721 4.473 399.651 5.35004 401.931 7.27952C403.159 8.24426 403.334 8.50737 404.387 10.086C405.878 12.2786 406.404 14.2081 406.492 17.8039C406.579 19.1195 406.579 20.2596 406.492 20.6105C406.053 22.4522 404.562 24.2063 402.633 25.2587C400.528 26.3112 399.037 26.5743 396.757 26.3989C394.564 26.1358 392.81 25.785 391.231 25.171L389.828 24.6448H387.46C385.004 24.6448 383.426 24.8202 382.987 25.171C382.812 25.3464 382.285 27.9776 382.022 30.3455C381.935 31.4857 381.935 32.275 382.022 33.5906C382.285 36.4848 382.724 38.3266 384.215 42.2732C385.969 46.9215 386.32 48.5002 386.407 51.3944C386.495 52.71 386.495 53.7624 386.32 54.464C386.144 55.8673 385.618 57.6213 385.004 58.6738C384.303 59.8139 382.198 61.8311 380.97 62.5327C379.742 63.2344 377.988 64.0237 376.848 64.2868C374.743 64.9007 371.673 65.1639 369.744 64.9884Z" fill="#FF35C7"/>
<path d="M295.335 64.9884C293.405 64.813 291.213 64.1991 289.809 63.4975C287.178 62.1819 284.723 59.5508 283.846 57.1828C283.232 55.6919 283.056 54.3763 283.144 52.7099C283.232 50.4296 283.846 48.4125 285.161 46.0445C286.652 43.5011 288.318 41.4839 293.054 36.7479C295.335 34.3799 296.212 33.4152 296.475 32.8889C296.65 32.5381 297.177 31.5734 297.703 30.7841C298.843 28.9423 300.071 26.8374 300.597 25.5218C301.562 23.5047 302.263 20.0842 303.053 14.0327C303.579 10.3491 303.754 9.3844 304.281 8.24425C305.158 6.40248 307.087 4.91151 309.63 4.29759C310.946 3.94678 313.928 3.85907 315.77 4.03448C317.524 4.20989 320.067 4.73611 321.295 5.17463C322.786 5.70085 325.154 6.9287 326.382 7.80573C328.224 9.20899 329.276 10.7 329.89 12.7171C330.241 14.0327 330.416 15.4359 330.416 18.3302C330.416 27.2759 331.556 29.9947 336.819 33.5029C341.555 36.7479 343.045 38.1512 344.449 40.9577C345.589 43.238 346.115 45.0797 346.115 47.36C346.115 48.9387 345.94 49.8157 345.413 51.3944C344.186 55.1656 341.028 59.2877 337.608 61.568C333.749 64.1991 329.013 64.7253 324.452 63.1467C320.33 61.6557 317.261 59.1123 315.594 55.7796C314.717 54.0255 313.928 51.219 313.402 47.9739C313.226 47.1846 313.139 46.5707 313.139 46.6584C313.139 46.6584 312.788 47.5354 312.525 48.5879C310.771 54.2886 308.666 58.2353 305.684 61.0418C303.403 63.3221 300.685 64.6376 297.527 64.9007C296.3 65.0761 296.212 65.0761 295.335 64.9884ZM314.805 30.2578C315.682 30.1701 316.471 30.1701 316.647 30.1701C316.91 30.1701 316.998 30.0824 316.998 29.907C316.998 29.8193 316.471 28.8546 315.945 27.7144C315.331 26.5743 314.717 25.2587 314.542 24.8202C314.366 24.294 314.103 23.9432 314.103 23.9432C314.016 23.9432 314.016 24.0309 313.226 27.6267C312.875 29.03 312.612 30.1701 312.612 30.3455C312.525 30.5209 312.612 30.5209 312.963 30.4332C313.226 30.4332 314.016 30.3455 314.805 30.2578Z" fill="#FFE235"/>
<path d="M247.366 64.9006C245.436 64.6375 244.121 64.0236 242.718 63.0588C240.087 61.1294 238.771 57.7089 238.771 53.0606C238.771 50.6049 238.946 49.5525 240.788 44.2903C243.244 37.0986 243.332 36.5724 243.244 33.2396C243.156 30.8716 243.332 31.5733 241.227 23.68C238.771 14.7342 238.42 12.8047 238.771 10.7875C239.034 8.68265 240.087 6.75317 241.665 4.9991C243.595 2.98192 246.138 1.66637 250.085 0.70163C252.277 0.17541 253.417 0 255.785 0C257.803 0 258.153 0.0877076 259.294 0.350815C263.416 1.49096 266.31 4.56059 267.45 9.20887C267.713 10.2613 267.801 10.6998 267.801 12.8924C267.801 14.9973 267.713 15.6989 267.538 16.8391C267.099 19.0317 266.31 21.5751 265.17 24.7324C263.503 29.293 262.977 31.1348 262.363 34.1167C261.486 38.0633 261.135 42.3608 261.398 44.9042C261.662 47.5353 262.539 50.3418 263.416 51.3066C263.942 51.8328 264.205 51.8328 266.398 51.2189C268.766 50.6049 271.221 50.2541 273.765 50.1664C276.22 50.0787 277.361 50.2541 279.465 50.6926C282.447 51.482 284.465 52.8852 285.605 55.1655C286.131 56.218 286.131 56.3057 286.131 57.3581C286.131 58.586 285.955 59.1999 285.254 60.34C284.026 62.3572 283.324 62.9711 281.132 63.7605C279.729 64.199 279.553 64.199 277.01 64.3744C273.414 64.6375 269.292 64.4621 265.17 63.7605C263.766 63.4974 263.766 63.4974 259.908 63.8482C257.803 64.0236 254.996 64.3744 253.681 64.5498C250.611 65.076 248.769 65.1637 247.366 64.9006Z" fill="#FF353B"/>
<path d="M204.449 64.9882C201.292 64.7251 200.064 64.5497 198.573 64.1112C195.854 63.1464 192.434 61.5678 190.504 60.2522C189.013 59.2875 186.382 56.6564 185.154 54.99C183.576 52.622 182.172 49.5524 181.559 46.6582C180.945 43.6763 180.945 41.2206 181.471 37.2739C182.26 31.924 182.348 30.8716 182.172 29.2052C181.997 27.6265 181.646 26.3987 180.594 23.6799C179.191 20.1717 178.927 19.3824 179.015 17.2775C179.015 15.4357 179.278 14.1202 179.98 12.6292C183.137 5.96375 194.1 2.89413 201.467 6.57768C204.537 8.06863 206.466 10.612 207.168 13.7694C207.431 14.9095 207.519 17.8037 207.256 19.3824C206.993 21.1365 206.554 23.1536 205.589 27.0126C203.484 35.3444 202.783 39.8173 202.958 43.4132C203.046 45.2549 203.309 46.132 204.011 47.5352C204.888 49.377 206.379 50.6048 208.133 51.0434C208.659 51.2188 208.834 51.1311 209.799 50.868C210.413 50.6926 211.202 50.254 211.553 50.0786C212.869 49.1139 214.097 47.2721 214.535 45.4303C214.71 44.7287 214.798 44.0271 214.71 42.273C214.71 38.5018 214.184 34.9059 212.255 27.5388C211.115 22.6274 210.588 20.2594 210.413 18.2422C210.15 15.6988 210.413 13.3308 211.202 11.6645C211.904 9.82271 213.57 7.98093 215.237 6.92849C220.148 3.85887 228.217 4.29738 233.567 7.80553C234.707 8.59486 236.373 10.1735 237.075 11.3137C238.39 13.1554 238.829 14.9972 238.741 17.716C238.654 19.8209 238.478 20.3471 237.163 23.6799C235.233 28.5036 235.145 29.7314 236.11 36.0461C236.636 39.6419 236.812 41.5714 236.636 43.5009C236.022 49.9032 232.953 55.6916 228.305 59.3752C225.673 61.3924 221.99 63.0587 219.096 63.4973C218.482 63.585 217.342 63.8481 216.64 64.0235C214.272 64.6374 212.869 64.7251 206.291 64.9882C205.589 65.0759 204.8 65.0759 204.449 64.9882Z" fill="#85FF35"/>
</svg>
