<svg width="253" height="92" viewBox="0 0 253 92" fill="none" xmlns="http://www.w3.org/2000/svg">
<path d="M16.5309 91.7766C10.2207 90.7526 5.71341 88.5767 3.39538 85.5048C0.43345 81.6649 -0.339226 76.2891 1.07735 70.5293C1.33491 69.7613 2.23636 66.9454 3.13782 64.3855C4.16805 61.8256 5.06951 59.1377 5.32707 58.3697C6.87242 52.9939 7.12998 44.2902 6.22852 36.8665C6.09974 35.7145 5.71341 33.2826 5.45585 31.4906C4.94073 27.2668 4.55439 23.8109 4.55439 20.995C4.55439 19.331 4.55439 18.5631 4.16805 17.7951C3.00904 14.2112 5.06951 9.73137 9.19045 7.17145C12.9251 4.73953 19.1065 3.97156 23.8713 5.37951C26.7044 6.14749 29.7952 7.81143 30.9542 9.34738C31.3405 9.73137 31.3405 9.73137 32.4995 8.5794C33.9161 7.29945 35.3327 6.53147 37.7795 5.89149C43.7033 4.22755 48.9833 4.61154 53.8769 7.04345C56.0662 8.06742 57.9978 9.47537 59.9295 11.2673C62.3763 13.5712 63.6641 15.6192 64.4368 18.4351C65.5958 22.4029 65.0807 26.4988 62.7627 31.1066L61.6037 33.2826L62.7627 33.7946C65.0807 34.8185 68.6865 37.5064 71.0046 40.0663C74.3528 43.6502 76.4133 45.0153 77.5723 49.2392C77.9586 50.9031 79.1238 52.2867 77.5723 58.3697C76.2405 63.5913 72.9914 68.9202 72.9914 71.9677C72.9914 76.539 74.0953 81.949 71.0046 84.8929C67.0124 88.8607 60.7267 90.3807 52.8467 90.3258C43.8628 90.2633 40.8702 87.0408 37.0068 86.6568L34.6888 86.4008L33.5298 87.5527C31.2117 89.6007 28.8937 90.8806 25.9318 91.5206C23.6137 92.0326 18.8489 92.1606 16.5309 91.7766ZM44.7336 67.0734C44.9911 66.8174 45.635 66.3055 46.1501 65.7935C47.3091 64.5135 47.8243 63.1056 47.8243 61.1856C47.8243 59.7777 47.6955 59.6497 47.3091 59.1377C46.5365 58.3697 45.3775 57.8577 44.3472 57.8577C43.5745 57.8577 43.4458 57.9857 43.0594 58.3697C42.8019 58.7537 42.8019 59.2657 42.8019 62.5936C42.8019 65.6655 42.9306 66.4335 43.1882 66.8174C43.4458 67.3294 43.9609 67.4574 44.7336 67.0734ZM40.2263 31.3626C40.4838 31.8746 41.2565 31.7466 42.158 30.8507C43.0594 29.9547 43.9609 28.0347 44.0897 26.8828C44.3472 25.0908 43.317 23.6829 41.9004 23.1709C41.1277 22.9149 40.3551 23.1709 40.0975 23.6829C39.8399 24.1949 39.9687 30.7227 40.2263 31.3626Z" fill="#348EFF"/>
<path d="M185.102 91.7767C178.772 90.7528 174.251 88.5769 171.926 85.505C168.955 81.6651 167.922 73.6195 169.601 70.5295C171.28 67.4395 172.535 67.5244 175.611 65.6656C180.224 62.9532 179.757 59.1378 180.015 58.3699C181.565 52.9941 181.824 44.2904 180.919 36.8666C180.79 35.7146 180.403 33.2827 180.144 31.4908C179.628 27.2669 179.24 23.811 179.24 20.9951C179.24 19.3312 179.24 18.5632 178.852 17.7952C177.69 14.2114 179.757 9.73152 183.89 7.1716C187.636 4.73968 193.837 3.97171 198.617 5.37966C201.458 6.14764 204.559 7.81158 205.721 9.34753C206.109 9.73152 206.109 9.73152 207.271 8.57956C208.692 7.2996 210.113 6.53162 212.568 5.89164C218.51 4.2277 223.806 4.61169 228.715 7.0436C230.911 8.06757 232.848 9.47552 234.786 11.2675C237.24 13.5714 238.532 15.6193 239.307 18.4352C240.47 22.4031 239.953 26.499 237.628 31.1068L236.465 33.2827L237.628 33.7947C239.953 34.8187 243.57 37.5066 245.895 40.0665C249.254 43.6504 251.321 47.4902 252.483 51.7141C252.871 53.378 253 53.89 253 57.3459C253 61.4418 252.871 62.7217 252.096 65.6656C251.062 69.6335 248.996 73.0894 245.895 76.0333C241.891 80.0011 235.69 83.073 227.681 85.121C222.514 86.4009 215.668 87.0409 211.793 86.6569L209.467 86.4009L208.305 87.5529C205.98 89.6008 203.654 90.8808 200.683 91.5208C198.358 92.0327 187.427 92.1607 185.102 91.7767ZM219.543 67.0736C219.802 66.8176 220.447 66.3056 220.964 65.7936C222.127 64.5137 222.643 63.1057 222.643 61.1858C222.643 59.7778 222.514 59.6498 222.127 59.1378C221.352 58.3699 220.189 57.8579 219.156 57.8579C218.381 57.8579 218.251 57.9859 217.864 58.3699C217.606 58.7539 217.606 59.2658 217.606 62.5937C217.606 65.6656 217.735 66.4336 217.993 66.8176C218.251 67.3296 218.768 67.4576 219.543 67.0736ZM215.022 31.3628C215.28 31.8748 216.055 31.7468 216.96 30.8508C217.864 29.9548 218.768 28.0349 218.897 26.8829C219.156 25.091 218.122 23.683 216.701 23.1711C215.926 22.9151 215.151 23.1711 214.893 23.683C214.634 24.195 214.764 30.7228 215.022 31.3628Z" fill="#348EFF"/>
<path d="M89.6814 91.79C86.8271 91.4056 84.8811 90.5084 82.8053 89.0986C78.9131 86.279 76.9671 81.2806 76.9671 74.4879C76.9671 70.8993 77.2265 69.3613 79.951 61.6714C83.5837 51.162 83.7134 50.393 83.5837 45.5227C83.454 42.0623 83.7134 43.0876 80.5997 31.5528C76.9671 18.4801 76.4481 18.712 76.9671 15.7642C77.3563 12.6883 78.9131 9.86865 81.2484 7.30537C84.1026 4.35759 87.865 2.43512 93.7032 1.02532C96.9467 0.256333 98.6333 0 102.136 0C105.12 0 105.639 0.128171 107.326 0.512659C113.423 2.1788 117.871 6.6264 119.391 13.4573C119.791 15.2528 119.311 13.1414 119.91 15.7886C119.91 18.8646 119.781 19.8899 119.521 21.556C118.872 24.7601 119.447 29.3251 117.76 33.939C115.295 40.6035 114.332 43.3133 113.423 47.6709C112.126 53.4382 110.05 58.8518 110.439 62.5686C110.829 66.4135 112.126 69.6176 113.423 71.0274C114.202 71.7964 116.148 71.9246 119.391 71.0274C122.894 70.1303 124.809 69.1597 128.572 69.0316C132.204 68.9034 140.23 70.3866 143.343 71.0274C147.754 72.1809 150.738 74.2315 152.425 77.5638C153.203 79.1018 153.203 79.2299 153.203 80.7679C153.203 82.5622 152.944 83.4594 151.906 85.1255C150.09 88.0733 149.052 88.9704 145.808 90.1239C143.733 90.7647 143.473 90.7647 139.711 91.0211C134.391 91.4056 122.116 91.1492 116.018 90.1239C113.942 89.7394 113.942 89.7394 108.234 90.2521C105.12 90.5084 100.969 91.0211 99.0225 91.2774C94.4817 92.0464 91.7572 92.1745 89.6814 91.79Z" fill="#348EFF"/>
<path d="M146.237 66.872C141.454 66.366 135.851 64.8481 132.025 63.0773C130.112 62.1918 127.242 60.2945 125.739 59.0296C124.645 58.0176 124.236 57.2587 123.416 55.8673C122.186 53.464 121.912 52.1991 122.049 48.9103C122.186 45.3686 122.732 42.9652 124.645 37.7791C127.242 30.6956 127.515 28.7983 126.559 23.9916C126.012 20.8294 126.012 19.9439 126.422 18.1731C126.832 16.1492 127.925 14.3783 129.565 12.734C132.708 9.69818 136.944 7.67432 142.684 6.78889C145.69 6.28293 149.653 6.15644 152.113 6.28293C159.082 6.91538 163.045 8.0538 166.188 10.4571C169.331 12.734 170.288 14.8843 170.288 19.438C170.288 22.9797 170.561 24.1181 172.611 28.9248C175.481 35.3758 176.3 38.6646 176.574 43.2182C176.847 49.7957 174.251 55.9938 169.331 60.421C164.685 64.8481 158.945 66.872 150.883 66.9985C149.106 67.125 147.057 66.9985 146.237 66.872ZM148.287 45.2421C148.287 45.2421 148.833 45.1156 149.516 44.9891C151.84 44.6096 154.163 43.0917 154.846 41.4473C155.393 40.1824 155.119 38.1586 154.163 36.1347C152.933 33.4784 152.523 32.087 152.249 30.3162C151.976 27.9128 151.84 27.4069 151.02 26.7744C149.79 25.7625 147.74 25.636 146.237 26.2685C144.734 27.0274 144.597 27.4069 144.46 29.9367C144.324 32.4665 143.914 33.9844 143.094 35.7553C142.547 36.6407 142.41 37.1467 142.41 38.0321C142.41 41.5738 144.46 44.3566 147.74 44.9891C148.013 45.1156 148.287 45.2421 148.287 45.2421Z" fill="#348EFF"/>
</svg>
