<svg width="100" height="100" viewBox="0 0 100 100" fill="none" xmlns="http://www.w3.org/2000/svg">
<path d="M35.0235 80.2305C47.0634 86.5579 51.7493 75.1303 59.9344 74.8018C68.1196 74.4733 76.3106 79.156 82.0807 69.4321C87.8508 59.7082 78.8274 55.5331 78.5458 49.4322C78.2643 43.3313 89.0558 39.8371 82.8532 31.1914C76.6505 22.5458 67.0211 27.5956 59.5291 25.1702C52.0371 22.7448 46.8159 10.0793 35.4493 12.5154C24.0827 14.9516 34.8833 28.6594 30.6974 34.1133C26.5115 39.5672 12.0485 34.8011 10.8666 44.763C9.68473 54.7248 18.9897 54.4179 22.0432 61.881C25.0967 69.3442 22.9836 73.9031 35.0235 80.2305Z" fill="#7FFF30"/>
<g clip-path="url(#clip0_6076_42)">
<path d="M52.7491 47.9507L62.8004 36.5239H60.4186L51.691 46.4456L44.7203 36.5239H36.6804L47.2215 51.5273L36.6804 63.5101H39.0624L48.279 53.0324L55.6405 63.5101H63.6804L52.7485 47.9507H52.7491ZM49.4866 51.6595L48.4186 50.1655L39.9207 38.2776H43.5793L50.4372 47.8715L51.5052 49.3655L60.4197 61.8362H56.7611L49.4866 51.6601V51.6595Z" fill="#121212"/>
</g>
<defs>
<clipPath id="clip0_6076_42">
<rect width="27" height="27" fill="white" transform="translate(36.6804 36.5239)"/>
</clipPath>
</defs>
</svg>
