<svg width="242" height="88" viewBox="0 0 242 88" fill="none" xmlns="http://www.w3.org/2000/svg">
<g clip-path="url(#clip0_6076_54)">
<path d="M14.6394 85.4644C8.96287 84.4203 4.92953 82.4814 2.83817 79.7966C-9.79128e-05 76.217 -0.747011 71.2949 0.597433 66.2237C0.896198 65.478 1.64311 62.9424 2.39003 60.7051C3.4357 58.4678 4.03324 55.9322 4.332 55.1864C5.67645 50.4136 5.97521 42.5085 5.2283 35.7966C5.2283 34.7526 4.78015 32.5153 4.48138 31.0237C4.03324 27.2949 3.58509 24.1627 3.58509 21.6271C3.58509 19.0915 3.58509 19.3898 3.28632 18.6441C2.24064 15.3627 4.18262 11.3356 7.7678 9.09832C11.2036 6.86103 16.7308 6.11527 21.0629 7.60679C23.6024 8.35255 26.4406 9.84408 27.3369 11.1865C27.3369 11.1865 28.0839 11.1865 28.6814 10.4407C29.8764 9.24747 31.2209 8.65086 33.4616 8.05425C38.8394 6.56272 43.6197 6.86103 47.9518 9.09832C49.8937 10.1424 51.5369 11.3356 53.4789 12.8271C55.7197 14.9153 56.9147 16.7051 57.5122 19.2407C58.5579 22.8203 58.1098 26.5492 56.0184 30.5763L54.9727 32.5153L56.0184 32.9627C58.1098 34.0068 61.3962 36.3932 63.4876 38.6305C66.4752 41.9119 68.4172 43.1051 69.4629 46.9831C69.7616 48.4746 70.8073 49.817 69.4629 55.3356C68.2678 59.9593 65.4295 64.8814 65.4295 67.5661C65.4295 71.5932 66.4752 76.5153 63.6369 79.2C60.0518 82.7797 54.3752 84.122 47.3542 84.122C40.3332 84.122 36.4493 81.139 33.0135 80.6915L30.9221 80.3932L29.8764 81.4373C27.7851 83.2271 25.6937 84.4203 23.0048 85.017C20.9135 85.4644 16.7308 85.6136 14.49 85.3153V85.6136L14.6394 85.4644ZM40.0345 63.0915C40.3332 62.7932 40.9308 62.3458 41.2295 61.8983C42.2752 60.7051 42.7234 59.5119 42.7234 57.722C42.7234 55.9322 42.7234 56.3797 42.2752 55.9322C41.5283 55.1864 40.632 54.739 39.5863 54.739C38.5406 54.739 38.69 54.739 38.3913 55.1864C38.0925 55.4847 38.0925 56.0814 38.0925 58.9153C38.0925 61.7492 38.0925 62.4949 38.3913 62.6441C38.69 63.0915 39.1382 63.2407 39.7357 62.9424L40.0345 63.0915ZM35.8518 30.8746C36.1505 31.322 36.8974 31.1729 37.495 30.4271C38.0925 29.6814 39.1382 27.8915 39.1382 26.8475C39.4369 25.3559 38.3913 23.8644 37.1962 23.417C36.4493 23.1187 35.8518 23.417 35.553 23.8644C35.2542 24.3119 35.553 30.1288 35.553 30.7254H35.8518V30.8746Z" fill="#121212"/>
<path d="M166.711 85.4645C160.885 84.4204 156.852 82.4814 154.91 79.7967C152.221 76.217 151.325 69.0577 152.819 66.3729C154.312 63.6882 155.507 63.6882 158.346 62.0475C162.528 59.6611 162.08 56.0814 162.23 55.4848C163.574 50.7119 163.873 42.8068 163.126 36.095C163.126 35.0509 162.678 32.8136 162.379 31.3221C161.931 27.5933 161.483 24.4611 161.483 21.9255C161.483 19.3899 161.483 19.6882 161.184 18.9424C160.138 15.6611 162.08 11.6339 165.665 9.39666C169.101 7.15937 174.628 6.4136 178.96 7.90513C181.5 8.65089 184.338 10.1424 185.384 11.4848C185.384 11.4848 186.131 11.4848 186.728 10.739C187.923 9.54581 189.268 8.9492 191.509 8.35259C196.886 6.86106 201.667 7.15937 206.148 9.39666C208.09 10.4407 209.883 11.6339 211.675 13.1255C213.916 15.2136 215.111 17.0034 215.709 19.539C216.754 23.1187 216.306 26.8475 214.215 30.8746L213.169 32.8136L214.215 33.2611C216.306 34.3051 219.593 36.6916 221.684 38.9289C224.821 42.2102 226.614 45.6407 227.659 49.5187C227.958 51.0102 228.107 51.4577 228.107 54.5899C228.107 57.7221 228.107 59.3628 227.211 62.0475C226.165 65.6272 224.373 68.7594 221.535 71.295C217.949 74.8746 212.422 77.5594 205.102 79.4984C200.472 80.6916 194.198 81.139 190.762 80.8407L188.67 80.5424L187.625 81.5865C185.533 83.3763 183.442 84.5695 180.753 85.1661C178.662 85.6136 168.802 85.7628 166.711 85.4645ZM197.783 63.0916C198.081 62.7933 198.679 62.3458 198.978 61.8984C200.023 60.7051 200.472 59.5119 200.472 57.7221C200.472 55.9323 200.472 56.3797 200.023 55.9323C199.277 55.1865 198.38 54.739 197.335 54.739C196.289 54.739 196.438 54.739 196.139 55.1865C195.841 55.4848 195.841 56.0814 195.841 58.9153C195.841 61.7492 195.841 62.495 196.139 62.6441C196.438 63.0916 196.886 63.2407 197.484 62.9424L197.783 63.0916ZM193.6 30.8746C193.899 31.3221 194.646 31.1729 195.243 30.4272C196.139 29.5322 196.886 27.8916 196.886 26.8475C197.185 25.356 196.139 23.8645 194.944 23.417C194.198 23.1187 193.6 23.417 193.301 23.8645C193.002 24.3119 193.301 30.1289 193.301 30.7255H193.6V30.8746Z" fill="#121212"/>
<path d="M80.6667 85.4645C78.1272 85.1662 76.3346 84.2712 74.542 83.078C70.9568 80.5424 69.3136 76.0678 69.3136 69.8034C69.3136 63.539 69.6124 65.1797 72.0025 58.3187C75.2889 48.9221 75.4383 48.1763 75.2889 43.7017C75.2889 40.5695 75.2889 41.4645 72.6 31.0238C69.3136 19.2407 68.8655 19.539 69.3136 16.8543C69.6124 14.0204 70.9568 11.4848 73.0482 9.24751C75.5877 6.56276 79.0235 4.92209 84.2519 3.57971C87.2395 2.83395 88.7334 2.53564 91.8704 2.53564C95.0074 2.53564 95.0074 2.53564 96.5013 2.9831C102.028 4.47463 106.062 8.50175 107.406 14.617C107.854 16.2577 107.406 14.3187 107.854 16.7051C107.854 19.539 107.854 20.2848 107.556 21.9255C106.958 24.9085 107.556 28.9356 106.062 32.9628C103.821 39.078 102.925 41.4645 102.178 45.3424C100.983 50.5628 99.0408 55.4848 99.4889 58.7662C99.7877 62.3458 100.983 65.0306 102.178 66.3729C102.925 67.1187 104.568 67.2678 107.556 66.3729C110.693 65.478 112.485 64.7323 115.921 64.5831C119.207 64.5831 126.527 65.7763 129.365 66.3729C133.249 67.417 135.938 69.356 137.582 72.339C138.328 73.6814 138.328 73.8306 138.328 75.3221C138.328 76.8136 138.03 77.7085 137.133 79.2C135.49 81.8848 134.594 82.7797 131.606 83.6746C129.814 84.2712 129.515 84.2712 126.079 84.5695C121.299 84.8678 110.244 84.5695 104.717 83.6746H97.6963C94.858 83.9729 91.1235 84.4204 89.3309 84.7187C85.2976 85.4645 82.758 85.6136 80.8161 85.1661L80.6667 85.4645Z" fill="#121212"/>
<path d="M131.606 62.9424C127.274 62.495 122.195 61.1526 118.759 59.5119C117.116 58.617 114.427 56.9763 113.083 55.9322C112.037 55.0373 111.738 54.4407 110.991 53.0983C109.796 51.0102 109.647 49.6678 109.796 46.8339C109.796 43.5526 110.394 41.4644 112.186 36.8407C114.577 30.5763 114.726 28.6373 113.83 24.4611C113.232 21.6272 113.232 20.8814 113.83 19.2407C114.278 17.4509 115.174 15.8102 116.668 14.3187C119.506 11.6339 123.241 9.84411 128.469 8.94919C131.158 8.50173 134.743 8.35258 136.984 8.50173C143.258 9.09834 146.843 9.99326 149.682 12.2305C152.52 14.3187 153.267 16.1085 153.267 20.4339C153.267 24.7594 153.565 24.6102 155.358 28.9356C157.898 34.7526 158.794 37.5865 158.943 41.9119C159.242 47.878 156.852 53.3967 152.52 57.4238C148.337 61.3017 143.109 63.2407 135.938 63.3899H131.756V62.9424H131.606ZM133.399 43.4034C133.399 43.4034 133.996 43.4034 134.594 43.1051C136.685 42.8068 138.777 41.4644 139.374 39.8238C139.972 38.6305 139.673 36.8407 138.777 35.0509C137.582 32.6644 137.283 31.4712 137.133 29.8305C136.835 27.7424 136.685 27.1458 135.938 26.5492C134.743 25.6543 132.951 25.5051 131.606 26.1017C130.262 26.8475 130.112 27.1458 130.112 29.5322C130.112 31.9187 129.515 33.1119 128.917 34.7526C128.32 35.6475 128.32 35.9458 128.32 36.8407C128.32 40.1221 130.112 42.6577 133.1 43.1051C133.399 43.1051 133.698 43.4034 133.698 43.4034H133.399Z" fill="#121212"/>
<path d="M214.678 43.1945C217.113 42.9708 220.235 43.9403 221.699 45.9837C223.641 48.6684 223.297 51.0996 223.536 54.1871C223.775 57.2745 224.433 57.6176 227.151 58.5423C229.273 59.2583 231.469 59.7355 233.575 60.5559C234.71 61.0033 235.323 61.4806 236.309 62.1518C236.592 62.3457 236.906 62.5545 237.16 62.7783C239.894 65.3288 240.671 72.6223 240.835 76.2169C240.954 78.8271 241.343 82.7945 239.177 84.6738C237.429 86.1952 235.472 85.882 233.44 85.1511C233.142 85.8372 233.112 86.404 232.41 86.8216C231.259 87.5077 229.467 87.3884 228.167 87.3735C223.865 87.2989 218.995 86.9857 214.738 86.4189C211.944 86.046 208.613 85.6135 206.432 83.7342C206.118 83.8983 206.088 84.3905 205.924 84.5694C205.506 85.0467 203.504 85.3898 202.862 85.4196C201.099 85.4793 198.141 84.8827 198.171 82.6305C198.171 81.5118 198.664 79.5132 198.873 78.3349C199.665 73.9796 201.084 66.6711 203.161 62.8677C204.206 60.9586 204.893 60.4962 206.507 59.2135C211.018 55.6338 207.508 48.1315 211.81 44.4922C212.616 43.8061 213.632 43.2989 214.693 43.1945H214.678ZM235.233 62.1667C234.695 61.5105 234.516 61.4508 233.739 61.1376C231.722 60.3172 229.601 59.8399 227.54 59.1688C225.105 58.3783 223.432 57.901 223.118 55.0223C222.789 51.9647 223.297 49.5484 221.624 46.7444C219.951 43.9403 215.559 42.7172 212.84 44.2833C208.15 46.9681 210.809 54.0379 208.15 58.0054C207.164 59.482 205.805 59.825 204.699 61.1525C202.234 64.0759 200.726 71.3098 199.919 75.1281C199.471 77.2908 198.784 80.1694 198.619 82.3322C198.5 83.8535 199.62 84.5545 200.965 84.8379C202.458 85.1362 205.192 85.1213 206.029 83.5999C206.178 83.3315 205.864 83.1376 205.76 82.884C204.998 81.1688 206.029 79.6325 207.149 78.3945C207.313 78.2155 208.24 77.425 208.254 77.3505C208.254 77.3206 208.135 77.2162 208.135 77.082C208.06 76.2915 208.777 73.5471 209.001 72.6074C209.494 70.5193 210.107 68.3864 210.764 66.343C210.884 65.9701 211.018 65.5376 211.152 65.1796C211.197 65.0752 211.152 65.0155 211.317 65.0454C211.317 65.2393 211.287 65.4779 211.242 65.6718C210.555 68.4908 209.584 71.3993 208.971 74.3376C208.807 75.1132 208.493 76.3213 208.479 77.082C208.479 77.1566 208.479 77.2311 208.583 77.1864C208.718 77.1267 209.166 76.7538 209.39 76.6345C209.584 76.5301 210.585 75.9932 210.719 76.0677C210.794 76.1274 210.809 76.1722 210.779 76.2616C210.734 76.3959 209.703 76.8881 209.509 77.0223C207.328 78.3945 204.251 81.4671 207.104 83.7938C209.703 85.8969 216.724 86.225 220.071 86.4935C223.193 86.7322 226.927 87.2094 230.005 87.0305C231.947 86.9111 232.918 86.583 233.067 84.4949C233.261 82.004 232.664 77.8576 229.527 77.5891C227.107 77.3803 224.672 77.4996 222.237 77.4549C219.04 77.3952 213.722 76.8433 210.869 78.2901C210.615 78.4244 210.421 78.663 210.122 78.663C210.062 78.305 210.391 78.126 210.66 77.9471C213.02 76.3959 219.712 76.9328 222.655 76.9179C224.597 76.9179 226.509 76.7837 228.451 76.9776C229.049 77.0372 229.646 77.1715 230.244 77.3206C230.259 77.1416 230.124 77.0671 230.109 76.8881C229.99 76.023 230.229 74.9193 230.184 74.0542C230.139 73.3532 229.945 72.5627 229.84 71.8616C229.766 71.7871 229.527 72.0705 229.467 72.1301C227.883 73.7857 226.733 76.5898 223.88 74.7403C219.817 72.1301 222.102 68.6847 224.567 66.0298C224.716 65.8806 225.493 65.2094 225.508 65.1498C225.538 65.0155 224.851 64.5383 224.716 64.4637C224.462 64.3145 223.267 63.8372 223.208 63.7776C223.208 63.7776 223.178 63.6284 223.238 63.6433C223.611 63.6135 223.94 63.6732 224.283 63.7776C223.97 62.9572 223.701 62.0922 223.805 61.2122C223.925 61.1972 223.94 61.242 223.984 61.3315C224.164 61.7193 224.223 62.5396 224.388 63.0169C224.448 63.181 224.776 64.0162 224.851 64.1057C224.941 64.2399 225.672 64.5979 225.807 64.8366C226.554 64.4189 227.241 63.8671 228.018 63.4942C228.406 63.3003 228.914 63.0616 229.347 63.0318L226.688 64.7918C224.492 66.5071 220.459 70.3403 222.864 73.2338C225.941 76.9477 227.629 73.5023 229.646 71.2501C231.14 69.5796 232.574 68.7742 234.232 67.402C235.98 65.9701 236.861 64.1505 235.233 62.1966V62.1667ZM233.455 84.823C234.725 85.0318 236.189 85.5837 237.474 85.166C240.91 84.0474 240.521 79.4088 240.417 76.5003C240.297 73.1145 239.416 66.1193 237.205 63.524C237.055 63.345 236.353 62.644 236.189 62.5844C236.055 62.5247 236.084 62.6589 236.099 62.7335C236.473 64.061 236.727 64.7322 235.935 66.0447C234.785 67.9389 231.827 69.2216 230.303 71.0711C230.229 71.1606 230.079 71.3396 230.064 71.444L230.393 72.4881C230.393 72.324 230.617 70.8176 230.931 71.1457C230.587 73.2189 230.259 75.2623 230.542 77.3654C230.572 77.4549 231.14 77.7233 231.289 77.8277C233.381 79.2894 233.485 82.526 233.425 84.823H233.455Z" fill="#2E6807"/>
<path d="M235.233 62.1667C236.861 64.1355 235.965 65.9402 234.232 67.3721C232.499 68.804 231.125 69.5497 229.646 71.2202C227.629 73.4725 225.941 76.9179 222.864 73.204C220.459 70.2955 224.492 66.4772 226.688 64.7619L229.347 63.0019C228.914 63.0169 228.421 63.2704 228.018 63.4643C227.241 63.8372 226.554 64.3891 225.807 64.8067C225.672 64.568 224.94 64.2101 224.851 64.0758C224.791 63.9714 224.447 63.1511 224.388 62.987C224.223 62.5097 224.164 61.6745 223.984 61.3016C223.94 61.2121 223.91 61.1674 223.805 61.1823C223.701 62.0623 223.969 62.9274 224.283 63.7477C223.94 63.6433 223.611 63.5836 223.237 63.6135C223.178 63.6135 223.193 63.7328 223.208 63.7477C223.267 63.8074 224.462 64.2847 224.716 64.4338C224.851 64.5084 225.523 64.9857 225.508 65.1199C225.508 65.1796 224.701 65.8508 224.567 65.9999C222.087 68.6548 219.817 72.1152 223.88 74.7104C226.748 76.545 227.883 73.7409 229.467 72.1002C229.526 72.0406 229.765 71.7572 229.84 71.8318C229.93 72.5328 230.139 73.3233 230.184 74.0243C230.229 74.8894 229.99 75.9931 230.109 76.8582C230.139 77.0372 230.258 77.1118 230.243 77.2908C229.661 77.1416 229.063 77.0223 228.451 76.9477C226.509 76.7389 224.597 76.8731 222.655 76.888C219.712 76.888 213.02 76.366 210.659 77.9172C210.391 78.0962 210.077 78.2752 210.122 78.6331C210.405 78.6331 210.615 78.3945 210.869 78.2602C213.722 76.7986 219.055 77.3653 222.237 77.425C224.672 77.4697 227.106 77.3504 229.526 77.5592C232.678 77.8277 233.261 81.9741 233.067 84.465C232.902 86.5531 231.932 86.8813 230.004 87.0006C226.927 87.1796 223.193 86.7023 220.071 86.4636C216.724 86.1952 209.703 85.8819 207.104 83.764C204.251 81.4521 207.328 78.3647 209.509 76.9924C209.703 76.8731 210.734 76.3809 210.779 76.2318C210.809 76.1423 210.779 76.0826 210.719 76.0379C210.585 75.9484 209.584 76.5002 209.39 76.6047C209.166 76.724 208.732 77.0969 208.583 77.1565C208.478 77.2013 208.478 77.1267 208.478 77.0521C208.478 76.2914 208.807 75.0982 208.971 74.3077C209.584 71.3843 210.555 68.4609 211.242 65.6419C211.287 65.448 211.302 65.2094 211.317 65.0155C211.137 64.9857 211.197 65.0453 211.152 65.1497C211.003 65.5077 210.883 65.9402 210.764 66.3131C210.107 68.3565 209.494 70.4894 209.001 72.5775C208.777 73.5023 208.06 76.2616 208.135 77.0521C208.135 77.1863 208.254 77.2908 208.254 77.3206C208.254 77.3952 207.313 78.1857 207.149 78.3647C206.029 79.6175 204.998 81.1538 205.76 82.8541C205.879 83.1077 206.178 83.3016 206.029 83.5701C205.177 85.0914 202.458 85.1063 200.964 84.808C199.62 84.5396 198.515 83.8236 198.619 82.3023C198.783 80.1396 199.456 77.2609 199.919 75.0982C200.725 71.2799 202.234 64.0609 204.699 61.1226C205.819 59.7952 207.164 59.4521 208.15 57.9755C210.809 54.008 208.15 46.9531 212.84 44.2535C215.559 42.6874 220.041 44.0447 221.624 46.7145C223.297 49.5186 222.789 51.9348 223.118 54.9925C223.432 57.8711 225.105 58.3484 227.54 59.1389C229.601 59.8101 231.707 60.2874 233.739 61.1077C234.516 61.4209 234.695 61.4955 235.233 62.1369V62.1667ZM210.779 50.1748C210.958 50.3538 211.272 50.2643 211.391 50.0555C211.526 49.8169 211.571 49.1755 211.66 48.8474C212.123 47.2216 213.02 45.8792 214.678 45.3274C215.006 45.223 216.545 45.044 216.082 44.4325C215.619 43.8209 213.781 44.5667 213.214 44.8948C212.064 45.566 211.197 46.8786 210.898 48.1762C210.824 48.5192 210.54 49.9809 210.764 50.1897L210.779 50.1748ZM216.933 44.9843C217.412 45.5063 217.979 44.4623 217.277 44.4026C216.948 44.3728 216.724 44.7606 216.933 44.9843ZM219.353 46.7741C219.055 47.0725 219.548 47.5647 219.817 47.2067C220.041 46.9084 219.592 46.5355 219.353 46.7741ZM216.62 46.968C216.336 47.0575 216.321 47.7287 216.739 47.684C217.217 47.6392 217.158 46.7891 216.62 46.968ZM221.624 49.7274C221.131 49.2352 220.713 50.3091 221.295 50.488C221.639 50.6074 221.818 49.9213 221.624 49.7274ZM227.151 59.4372C226.808 59.5267 226.987 59.8548 227.211 60.0189C227.823 60.4514 228.929 60.7199 229.646 61.0331C230.961 61.6148 232.32 62.1369 233.321 63.166C233.515 63.3748 234.172 64.404 234.262 63.5091C234.352 62.6738 233.545 61.7341 232.858 61.3314C231.364 60.4514 229.601 60.4216 228.003 59.7803C227.779 59.6908 227.36 59.3775 227.151 59.4372ZM208.12 59.8399C207.642 59.9145 207.717 60.6304 208.165 60.6304C208.702 60.6304 208.643 59.7504 208.12 59.8399ZM206.775 61.063C206.118 60.4067 204.684 62.4202 204.4 62.8677C202.593 65.7016 202.294 69.5796 201.338 72.7565C201.233 73.4128 201.816 73.6216 202.1 72.9653C202.563 71.8765 202.832 70.0718 203.175 68.8636C203.848 66.5518 204.594 64.404 206.118 62.4948C206.342 62.2114 207.194 61.4806 206.775 61.063ZM222.7 64.225C221.699 64.3741 223.013 65.463 223.461 65.4033C224.268 65.2691 223.521 64.1206 222.7 64.225ZM227.704 65.9104C226.793 66.0148 225.448 67.4467 224.851 68.1179C224.477 68.5355 222.998 70.2657 222.998 70.7131C222.998 71.0413 223.447 71.3097 223.701 71.0114C224.447 70.027 225.194 68.9979 226.061 68.1179C226.404 67.7748 228.018 66.507 227.988 66.1341C227.988 65.985 227.853 65.8955 227.704 65.9104ZM215.619 66.507C214.797 66.6711 215.186 67.9836 215.992 67.566C216.62 67.2379 216.261 66.3728 215.619 66.507ZM214.872 67.9986C214.17 67.2975 212.825 69.2813 212.557 69.8033C212.168 70.5491 211.795 71.8318 211.929 72.6521C211.989 73.0548 212.362 73.5321 212.766 73.1741C212.975 72.9802 212.96 72.2494 213.035 71.8914C213.184 71.1457 213.453 70.4745 213.886 69.848C214.17 69.4603 215.365 68.4908 214.872 67.9986ZM219.055 78.1708C218.502 78.1857 217.083 78.1708 216.65 78.4094C216.142 78.7077 216.665 79.1104 217.083 79.1552C218.233 79.3043 219.846 79.1253 221.056 79.1552C223.222 79.2297 225.553 79.4386 227.734 79.6324C228.316 79.6772 229.317 79.9158 229.825 79.9009C230.273 79.886 230.647 79.4833 230.333 79.0657C230.064 78.6928 229.004 78.6182 228.541 78.5585C225.493 78.2155 222.102 78.0663 219.04 78.1708H219.055Z" fill="#85FE35"/>
<path d="M233.455 84.8231C233.515 82.5261 233.411 79.2895 231.319 77.8278C231.17 77.7234 230.602 77.4549 230.572 77.3654C230.303 75.2475 230.632 73.219 230.961 71.1458C230.647 70.8176 230.423 72.339 230.423 72.4881L230.094 71.4441C230.094 71.3397 230.259 71.1607 230.333 71.0712C231.842 69.2068 234.8 67.939 235.965 66.0448C236.757 64.7471 236.503 64.0759 236.129 62.7336C236.099 62.6441 236.084 62.5248 236.219 62.5844C236.383 62.659 237.085 63.3451 237.235 63.5241C239.446 66.1193 240.312 73.1146 240.446 76.5004C240.551 79.4088 240.954 84.0475 237.504 85.1661C236.219 85.5837 234.755 85.0319 233.485 84.8231H233.455ZM237.817 68.1329C237.743 68.1329 237.608 68.2075 237.578 68.297C237.459 68.6251 237.892 70.4746 237.967 70.9966C238.265 73.219 238.564 75.7695 238.654 77.9919C238.684 78.9315 238.519 80.2292 238.654 81.0942C238.773 81.8848 239.356 81.3926 239.565 80.9302C240.133 79.6922 239.58 76.0529 239.386 74.5763C239.147 72.7865 238.833 70.1465 238.176 68.5058C238.116 68.3417 238.026 68.1329 237.817 68.1478V68.1329Z" fill="#85FE35"/>
<path d="M219.055 78.1708C222.117 78.0664 225.508 78.2156 228.555 78.5586C229.004 78.6034 230.079 78.6929 230.348 79.0658C230.662 79.4983 230.288 79.8861 229.84 79.901C229.332 79.9159 228.331 79.6922 227.749 79.6325C225.568 79.4536 223.237 79.2298 221.071 79.1553C219.846 79.1105 218.248 79.3044 217.098 79.1553C216.694 79.0956 216.157 78.6929 216.665 78.4095C217.083 78.1708 218.502 78.1858 219.07 78.1708H219.055Z" fill="white"/>
<path d="M206.776 61.063C207.194 61.4956 206.342 62.2115 206.118 62.4949C204.61 64.4041 203.863 66.5518 203.176 68.8637C202.817 70.0868 202.548 71.8915 202.1 72.9654C201.831 73.6068 201.249 73.398 201.338 72.7566C202.294 69.5796 202.593 65.7017 204.4 62.8678C204.684 62.4203 206.118 60.4068 206.776 61.063Z" fill="white"/>
<path d="M210.779 50.1749C210.57 49.966 210.839 48.5044 210.913 48.1613C211.227 46.8786 212.079 45.5511 213.229 44.8799C213.782 44.5518 215.619 43.7762 216.097 44.4176C216.575 45.0589 215.021 45.2081 214.693 45.3125C213.035 45.8643 212.138 47.2067 211.675 48.8325C211.586 49.1606 211.541 49.802 211.406 50.0406C211.272 50.2494 210.958 50.3389 210.794 50.1599L210.779 50.1749Z" fill="white"/>
<path d="M227.151 59.4372C227.361 59.3775 227.779 59.6908 228.003 59.7802C229.601 60.4216 231.379 60.4514 232.858 61.3314C233.545 61.7341 234.352 62.6738 234.262 63.5091C234.172 64.4189 233.515 63.3748 233.321 63.166C232.32 62.1368 230.961 61.6148 229.646 61.0331C228.929 60.7199 227.839 60.4663 227.211 60.0189C226.987 59.8548 226.808 59.5267 227.151 59.4372Z" fill="white"/>
<path d="M214.872 67.9986C215.365 68.4908 214.17 69.4603 213.886 69.8481C213.438 70.4746 213.169 71.1457 213.035 71.8915C212.96 72.2495 212.975 72.9803 212.766 73.1742C212.363 73.5322 212.004 73.0549 211.929 72.6522C211.795 71.8318 212.168 70.5491 212.557 69.8034C212.826 69.2813 214.17 67.2976 214.872 67.9986Z" fill="white"/>
<path d="M227.704 65.9104C227.853 65.8955 227.988 65.985 227.988 66.1342C228.018 66.507 226.404 67.7748 226.061 68.1179C225.194 68.9979 224.448 70.027 223.701 71.0114C223.447 71.3098 222.999 71.0413 222.999 70.7131C222.999 70.2657 224.477 68.5355 224.851 68.1179C225.448 67.4467 226.793 65.9999 227.704 65.9104Z" fill="white"/>
<path d="M222.7 64.225C223.521 64.1057 224.268 65.2691 223.462 65.4033C223.014 65.4779 221.699 64.3742 222.7 64.225Z" fill="white"/>
<path d="M215.619 66.5071C216.276 66.3728 216.62 67.2379 215.993 67.5661C215.186 67.9837 214.783 66.6711 215.619 66.5071Z" fill="white"/>
<path d="M221.624 49.7275C221.818 49.9214 221.654 50.6075 221.296 50.4881C220.713 50.2942 221.131 49.2353 221.624 49.7275Z" fill="white"/>
<path d="M208.12 59.84C208.643 59.7654 208.717 60.6305 208.165 60.6305C207.702 60.6305 207.642 59.9146 208.12 59.84Z" fill="white"/>
<path d="M216.934 44.9843C216.725 44.7606 216.934 44.3579 217.277 44.4026C217.979 44.4623 217.412 45.5063 216.934 44.9843Z" fill="white"/>
<path d="M216.62 46.9681C217.143 46.7891 217.202 47.6393 216.739 47.684C216.321 47.7288 216.336 47.0576 216.62 46.9681Z" fill="#2E6807"/>
<path d="M219.354 46.7742C219.593 46.5356 220.041 46.8935 219.817 47.2067C219.548 47.5796 219.07 47.0725 219.354 46.7742Z" fill="#2E6807"/>
<path d="M237.817 68.1328C238.041 68.1179 238.116 68.3267 238.176 68.4908C238.833 70.1315 239.147 72.7715 239.386 74.5613C239.58 76.0379 240.133 79.6772 239.565 80.9152C239.356 81.3776 238.773 81.8698 238.654 81.0793C238.519 80.2142 238.684 78.9166 238.654 77.9769C238.564 75.7545 238.265 73.204 237.967 70.9817C237.892 70.4745 237.474 68.625 237.578 68.282C237.608 68.1925 237.728 68.1179 237.817 68.1179V68.1328Z" fill="white"/>
</g>
<defs>
<clipPath id="clip0_6076_54">
<rect width="242" height="88" fill="white"/>
</clipPath>
</defs>
</svg>
