<svg width="100" height="100" viewBox="0 0 100 100" fill="none" xmlns="http://www.w3.org/2000/svg">
<path d="M49.6114 17C36.0268 17 37.1936 29.287 30.1096 33.3827C23.0256 37.4784 13.6081 37.144 13.0247 48.428C12.4413 59.7121 22.3589 59.2105 25.4425 64.4764C28.5261 69.7423 20.6087 77.85 30.1096 82.6144C39.6105 87.3788 45.7777 78.4351 53.5284 77.0978C61.2791 75.7604 71.7801 84.5369 80.6976 77.0978C89.6151 69.6587 73.6969 62.5539 74.8637 55.7835C76.0305 49.0131 91.0319 46.5056 87.4482 37.144C83.8646 27.7825 75.7805 32.3797 69.6132 27.1974C63.446 22.0151 63.196 17 49.6114 17Z" fill="#7FFF30"/>
<g clip-path="url(#clip0_6076_41)">
<path fill-rule="evenodd" clip-rule="evenodd" d="M55.2908 44.6737C56.6382 44.0025 58.3527 43.0146 60.0692 41.661C60.4312 42.4118 60.4708 43.0669 60.2843 43.596C60.1522 43.9688 59.9032 44.2931 59.5758 44.5511C59.2212 44.8299 58.7784 45.0329 58.2888 45.1426C57.36 45.3516 56.2756 45.2295 55.2908 44.6737ZM55.5244 51.5503L57.3081 52.5795C53.6662 54.6184 52.6761 58.4045 51.5001 62.0921C50.3242 58.4045 49.334 54.6184 45.6923 52.5795L47.4759 51.5503C47.6484 51.4852 47.7959 51.3671 47.8972 51.2131C47.9985 51.0591 48.0484 50.8771 48.0397 50.693C47.8763 47.2395 48.8098 45.7122 50.069 44.7533C50.5206 44.4098 51.0136 44.2373 51.5001 44.2373C51.9865 44.2373 52.4795 44.4098 52.9313 44.7533C54.1905 45.7122 55.124 47.2395 54.9606 50.693C54.9519 50.8771 55.0018 51.0591 55.1031 51.2131C55.2044 51.3671 55.3519 51.4852 55.5244 51.5503ZM51.5001 29C53.5618 29.0553 55.6287 29.4551 57.4224 30.2329C58.6646 30.7722 59.8236 31.4845 60.8731 32.3364C61.3471 32.7209 61.7373 33.0924 62.1672 33.5201C63.3267 33.5602 65.0212 32.2735 65.8079 31.0695C64.454 35.5032 58.2759 40.7391 53.9988 42.7425C53.997 42.7418 53.9958 42.7408 53.9945 42.7399C53.2269 42.1544 52.3636 41.8616 51.5001 41.8616C50.6366 41.8616 49.7734 42.1544 49.0058 42.7399C49.0045 42.7406 49.0033 42.7419 49.0015 42.7425C44.7242 40.7391 38.5463 35.5032 37.1924 31.0695C37.9789 32.2735 39.6734 33.5602 40.8329 33.5201C41.263 33.0926 41.6532 32.7209 42.127 32.3364C43.1765 31.4845 44.3356 30.7722 45.5777 30.2329C47.3716 29.4551 49.4385 29.0553 51.5001 29ZM47.7093 44.6737C46.3621 44.0025 44.6474 43.0146 42.9311 41.661C42.5691 42.4118 42.5295 43.0669 42.7158 43.596C42.8481 43.9688 43.0971 44.2931 43.4244 44.5511C43.7791 44.8299 44.2219 45.0329 44.7115 45.1426C45.6403 45.3516 46.7246 45.2295 47.7093 44.6737Z" fill="#121212"/>
<path fill-rule="evenodd" clip-rule="evenodd" d="M61.9491 40.0023C62.8941 39.0497 63.7267 37.9953 64.3963 37.0544L64.7363 37.6938C65.831 39.8816 66.3998 42.0606 66.3998 44.5129L66.3975 48.4042L66.418 50.4215C66.4973 55.3738 67.57 60.3844 70 64.9698L64.9159 60.8746L61.3185 66.7059L57.5392 63.152L51.5 72.9419L45.4608 63.1522L41.6816 66.706L38.0843 60.8747L33 64.97C35.43 60.3846 36.5027 55.374 36.5821 50.4216L36.6027 48.4044L36.6003 44.513C36.6003 42.0606 37.169 39.8816 38.264 37.6939L38.6039 37.0546C39.2734 37.9955 40.1059 39.0497 41.051 40.0024L40.7559 40.6148C40.1826 41.8041 39.9927 43.1339 40.4393 44.3986C40.7273 45.2132 41.2528 45.9118 41.9302 46.4451C42.588 46.9629 43.3665 47.312 44.1815 47.4954C44.7124 47.6147 45.2533 47.6639 45.7907 47.6471C45.6653 48.3572 45.6105 49.0936 45.607 49.8439L40.8111 52.6109L44.512 54.6832C44.8078 54.8489 45.0894 55.0386 45.3539 55.2506C48.4051 57.9871 50.2395 66.0827 51.5001 70.037C52.7609 66.0827 54.5952 57.9871 57.6466 55.2506C57.911 55.0386 58.1926 54.8488 58.4884 54.6832L62.1893 52.6109L57.3933 49.8439C57.3898 49.0936 57.335 48.3572 57.2096 47.6471C57.747 47.6639 58.2879 47.6147 58.8188 47.4954C59.6338 47.312 60.4124 46.9629 61.0701 46.4451C61.7474 45.9118 62.273 45.2132 62.5608 44.3986C63.0076 43.1339 62.8176 41.8042 62.2444 40.6148L61.9493 40.0024L61.9491 40.0023Z" fill="#121212"/>
</g>
<defs>
<clipPath id="clip0_6076_41">
<rect width="37" height="44" fill="white" transform="translate(33 29)"/>
</clipPath>
</defs>
</svg>
