<svg width="100" height="100" viewBox="0 0 100 100" fill="none" xmlns="http://www.w3.org/2000/svg">
<path d="M66.7647 20.7271C55.0723 13.7785 49.795 24.9452 41.6039 24.845C33.4128 24.7447 25.4779 19.6399 19.207 29.0486C12.9361 38.4573 21.7286 43.0988 21.6906 49.206C21.6526 55.3133 10.693 58.2382 16.4348 67.1965C22.1766 76.1549 32.0571 71.6157 39.4119 74.4298C46.7667 77.2439 51.3181 90.1652 62.7966 88.3271C74.2751 86.489 64.2064 72.2349 68.672 67.0075C73.1375 61.78 87.3313 67.2963 89.0328 57.4099C90.7343 47.5236 81.426 47.3432 78.7671 39.7305C76.1083 32.1179 78.4571 27.6758 66.7647 20.7271Z" fill="#7FFF30"/>
<path d="M62.3264 38.126L57.4413 61.1643C57.0724 62.79 56.1116 63.1947 54.7461 62.4292L47.3021 56.944L43.7108 60.3989C43.3131 60.7966 42.9812 61.1285 42.2146 61.1285L42.75 53.5481L56.5452 41.0825C57.1453 40.5484 56.4145 40.2512 55.6132 40.7865L38.5585 51.5258L31.2164 49.2272C29.6196 48.7288 29.5907 47.6304 31.5494 46.8638L60.2671 35.7996C61.5968 35.3013 62.76 36.0945 62.3264 38.126Z" fill="black"/>
</svg>
