<svg width="85" height="136" viewBox="0 0 85 136" fill="none" xmlns="http://www.w3.org/2000/svg">
<path d="M39.6716 28.1716L11.5 0C5.14873 6.35127 5.14872 16.6487 11.5 23L40.0362 51.5362C41.3969 52.8969 43.6031 52.8969 44.9638 51.5362L73.5 23C79.8513 16.6487 79.8513 6.35127 73.5 0L45.3284 28.1716C43.7663 29.7337 41.2337 29.7337 39.6716 28.1716Z" fill="#7FFF30" fill-opacity="0.25"/>
<path d="M39.6716 69.1716L11.5 41C5.14873 47.3513 5.14872 57.6487 11.5 64L40.0362 92.5362C41.3969 93.8969 43.6031 93.8969 44.9638 92.5362L73.5 64C79.8513 57.6487 79.8513 47.3513 73.5 41L45.3284 69.1716C43.7663 70.7337 41.2337 70.7337 39.6716 69.1716Z" fill="#7FFF30" fill-opacity="0.59"/>
<path d="M39.6716 110.172L11.5 82C5.14873 88.3513 5.14872 98.6487 11.5 105L40.0362 133.536C41.3969 134.897 43.6031 134.897 44.9638 133.536L73.5 105C79.8513 98.6487 79.8513 88.3513 73.5 82L45.3284 110.172C43.7663 111.734 41.2337 111.734 39.6716 110.172Z" fill="#7FFF30"/>
</svg>
