<svg width="100" height="100" viewBox="0 0 100 100" fill="none" xmlns="http://www.w3.org/2000/svg">
<path d="M52.386 14.3766C65.9811 14.7853 64.4322 27.4332 71.3946 31.8739C78.357 36.3147 87.7923 36.2529 88.026 47.9181C88.2597 59.5833 78.3499 58.7673 75.1005 64.1101C71.8511 69.4529 79.5231 78.0601 69.867 82.6922C60.2109 87.3242 54.3164 77.9069 46.6011 76.2932C38.8859 74.6796 28.1044 83.423 19.4108 75.4759C10.7172 67.5288 26.8682 60.674 25.9106 53.6503C24.953 46.6266 10.0177 43.5869 13.8946 34.0315C17.7716 24.4761 25.7193 29.4646 32.0522 24.3009C38.385 19.1371 38.7908 13.9679 52.386 14.3766Z" fill="#7FFF30"/>
<path d="M65.6238 38.0741C63.6042 43.1154 58.9947 49.6983 54.6009 53.9996C53.9688 50.0221 50.793 46.9079 46.7847 46.3529C51.1013 41.9437 57.7305 37.2725 62.7872 35.2375C63.6813 34.8983 64.5755 35.1604 65.1305 35.7154C65.7163 36.3012 65.9938 37.18 65.6238 38.0741Z" fill="black"/>
<path d="M53.2442 55.2637C52.9359 55.5258 52.6276 55.7879 52.3192 56.0345L49.5596 58.2391C49.5596 58.1929 49.5442 58.1312 49.5442 58.0695C49.3284 56.4199 48.5576 54.8937 47.3088 53.6449C46.0446 52.3808 44.4721 51.6099 42.7455 51.3941C42.6992 51.3941 42.6376 51.3787 42.5913 51.3787L44.8267 48.5574C45.0426 48.2799 45.2738 48.0179 45.5205 47.7404L46.5688 47.8791C49.8834 48.3416 52.5505 50.947 53.0746 54.2462L53.2442 55.2637Z" fill="black"/>
<path d="M48.0796 59.1641C48.0796 60.8599 47.4321 62.4786 46.1988 63.6966C45.2584 64.6524 43.9942 65.2999 42.4525 65.4849L38.6755 65.9011C36.6096 66.1324 34.8367 64.3595 35.068 62.2782L35.4842 58.4857C35.8542 55.1095 38.6755 52.9511 41.6663 52.8895C41.9592 52.8741 42.283 52.8895 42.5913 52.9203C43.9017 53.0899 45.1659 53.6911 46.2296 54.7395C47.2625 55.7724 47.8484 56.9903 48.018 58.2699C48.0488 58.5782 48.0796 58.8711 48.0796 59.1641Z" fill="black"/>
</svg>
